<?xml version="1.0" encoding="UTF-8" standalone="no"?>
<svg width="44px" height="44px" viewBox="0 0 44 44" version="1.1" xmlns="http://www.w3.org/2000/svg" xmlns:xlink="http://www.w3.org/1999/xlink" xmlns:sketch="http://www.bohemiancoding.com/sketch/ns">
    <!-- Generator: Sketch 3.4.2 (15855) - http://www.bohemiancoding.com/sketch -->
    <title>corporate</title>
    <desc>Created with Sketch.</desc>
    <defs></defs>
    <g id="Page-1" stroke="none" stroke-width="1" fill="none" fill-rule="evenodd" sketch:type="MSPage">
        <g id="-Icons" sketch:type="MSArtboardGroup" transform="translate(-1000.000000, -308.000000)">
            <g id="corporate" sketch:type="MSLayerGroup" transform="translate(1001.000000, 310.000000)">
                <circle id="Oval" stroke="#635C56" stroke-width="3" sketch:type="MSShapeGroup" cx="20.8324324" cy="20.3891892" r="19.9459459"></circle>
                <g id="Group" transform="translate(9.972973, 9.972973)" fill="#635C56" sketch:type="MSShapeGroup">
                    <path d="M0,20.1675676 L3.65675676,20.1675676 L3.65675676,16.8432432 L8.08918919,16.8432432 L8.08918919,20.1675676 L11.7459459,20.1675676 L11.7459459,0.332432432 L0,0.332432432 L0,20.1675676 L0,20.1675676 Z M6.64864865,2.99189189 L9.08648649,2.99189189 L9.08648649,5.98378378 L6.64864865,5.98378378 L6.64864865,2.99189189 L6.64864865,2.99189189 Z M6.64864865,7.2027027 L9.08648649,7.2027027 L9.08648649,10.1945946 L6.64864865,10.1945946 L6.64864865,7.2027027 L6.64864865,7.2027027 Z M6.64864865,11.4135135 L9.08648649,11.4135135 L9.08648649,14.4054054 L6.64864865,14.4054054 L6.64864865,11.4135135 L6.64864865,11.4135135 Z M2.65945946,2.99189189 L5.0972973,2.99189189 L5.0972973,5.98378378 L2.65945946,5.98378378 L2.65945946,2.99189189 L2.65945946,2.99189189 Z M2.65945946,7.2027027 L5.0972973,7.2027027 L5.0972973,10.1945946 L2.65945946,10.1945946 L2.65945946,7.2027027 L2.65945946,7.2027027 Z M2.65945946,11.4135135 L5.0972973,11.4135135 L5.0972973,14.4054054 L2.65945946,14.4054054 L2.65945946,11.4135135 L2.65945946,11.4135135 Z" id="Shape"></path>
                    <path d="M22.7162162,6.53783784 L13.0756757,6.53783784 L13.0756757,20.0567568 L16.2891892,20.0567568 L16.2891892,16.7324324 L19.5027027,16.7324324 L19.5027027,20.0567568 L22.7162162,20.0567568 L22.7162162,6.53783784 L22.7162162,6.53783784 Z M17.2864865,14.7378378 L15.2918919,14.7378378 L15.2918919,12.3 L17.2864865,12.3 L17.2864865,14.7378378 L17.2864865,14.7378378 Z M17.2864865,11.0810811 L15.2918919,11.0810811 L15.2918919,8.64324324 L17.2864865,8.64324324 L17.2864865,11.0810811 L17.2864865,11.0810811 Z M20.6108108,14.7378378 L18.6162162,14.7378378 L18.6162162,12.3 L20.6108108,12.3 L20.6108108,14.7378378 L20.6108108,14.7378378 Z M20.6108108,11.0810811 L18.6162162,11.0810811 L18.6162162,8.64324324 L20.6108108,8.64324324 L20.6108108,11.0810811 L20.6108108,11.0810811 Z" id="Shape"></path>
                </g>
            </g>
        </g>
    </g>
</svg>