<?xml version="1.0" encoding="UTF-8" standalone="no"?>
<svg width="44px" height="43px" viewBox="0 0 44 43" version="1.1" xmlns="http://www.w3.org/2000/svg" xmlns:xlink="http://www.w3.org/1999/xlink" xmlns:sketch="http://www.bohemiancoding.com/sketch/ns">
    <!-- Generator: Sketch 3.4.2 (15855) - http://www.bohemiancoding.com/sketch -->
    <title>gear-talk</title>
    <desc>Created with Sketch.</desc>
    <defs></defs>
    <g id="Page-1" stroke="none" stroke-width="1" fill="none" fill-rule="evenodd" sketch:type="MSPage">
        <g id="-Icons" sketch:type="MSArtboardGroup" transform="translate(-812.000000, -309.000000)">
            <g id="gear-talk" sketch:type="MSLayerGroup" transform="translate(813.000000, 310.000000)">
                <circle id="Oval" stroke="#635C56" stroke-width="3" sketch:type="MSShapeGroup" cx="20.8324324" cy="20.5" r="19.9459459"></circle>
                <g id="Group" transform="translate(9.972973, 8.756757)" fill="#635C56" sketch:type="MSShapeGroup">
                    <path d="M19.0594595,4.65405405 L14.9594595,4.65405405 L14.9594595,0.443243243 L6.87027027,0.443243243 L6.87027027,4.65405405 L2.77027027,4.65405405 C1.77297297,4.65405405 0.886486486,5.42972973 0.886486486,6.53783784 L0.886486486,10.4162162 L20.9432432,10.4162162 L20.9432432,6.53783784 C20.9432432,5.54054054 20.1675676,4.65405405 19.0594595,4.65405405 L19.0594595,4.65405405 Z M8.31081081,1.99459459 L13.5189189,1.99459459 L13.5189189,4.65405405 L8.31081081,4.65405405 L8.31081081,1.99459459 L8.31081081,1.99459459 Z" id="Shape"></path>
                    <rect id="Rectangle-path" x="8.97567568" y="12.0783784" width="3.76756757" height="2.65945946"></rect>
                    <path d="M13.8513514,15.7351351 L7.97837838,15.7351351 L7.97837838,11.9675676 L0.886486486,11.9675676 L0.886486486,20.3891892 L0.886486486,20.5 L20.9432432,20.5 L20.9432432,20.3891892 L20.9432432,11.9675676 L13.8513514,11.9675676 L13.8513514,15.7351351 L13.8513514,15.7351351 Z" id="Shape"></path>
                </g>
            </g>
        </g>
    </g>
</svg>