<?xml version="1.0" encoding="UTF-8" standalone="no"?>
<svg width="36px" height="36px" viewBox="0 0 36 36" version="1.1" xmlns="http://www.w3.org/2000/svg" xmlns:xlink="http://www.w3.org/1999/xlink" xmlns:sketch="http://www.bohemiancoding.com/sketch/ns">
    <!-- Generator: Sketch 3.4.2 (15855) - http://www.bohemiancoding.com/sketch -->
    <title>instagram</title>
    <desc>Created with Sketch.</desc>
    <defs></defs>
    <g id="Page-1" stroke="none" stroke-width="1" fill="none" fill-rule="evenodd" sketch:type="MSPage">
        <g id="-Icons" sketch:type="MSArtboardGroup" transform="translate(-556.000000, -611.000000)">
            <g id="instagram" sketch:type="MSLayerGroup" transform="translate(557.500000, 612.000000)">
                <ellipse id="Oval" stroke="#635C56" stroke-width="3" sketch:type="MSShapeGroup" cx="16.2965517" cy="17.1172414" rx="16.2965517" ry="16.2965517"></ellipse>
                <g id="Group" transform="translate(7.034483, 8.206897)" fill="#635C56" sketch:type="MSShapeGroup">
                    <path d="M13.6,6.91724138 L13.7172414,6.91724138 L17.2344828,6.91724138 C17.3517241,6.91724138 17.3517241,6.91724138 17.3517241,7.03448276 L17.3517241,14.4206897 C17.3517241,14.7724138 17.2344828,15.1241379 17.1172414,15.4758621 C17,15.9448276 16.7655172,16.2965517 16.2965517,16.5310345 C16.062069,16.6482759 15.9448276,16.7655172 15.7103448,16.8827586 C15.3586207,17 15.1241379,17 14.7724138,17 L4.22068966,17 C3.75172414,17 3.4,16.8827586 3.04827586,16.7655172 C2.34482759,16.5310345 1.87586207,16.062069 1.52413793,15.4758621 C1.28965517,15.1241379 1.17241379,14.7724138 1.17241379,14.3034483 L1.17241379,7.03448276 C1.17241379,6.91724138 1.17241379,6.91724138 1.28965517,6.91724138 L5.39310345,6.91724138 L5.51034483,6.91724138 C4.92413793,7.97241379 4.80689655,9.02758621 5.15862069,10.0827586 C5.39310345,11.0206897 5.97931034,11.8413793 6.8,12.5448276 C8.55862069,13.9517241 10.7862069,13.7172414 12.1931034,12.662069 C12.662069,12.3103448 13.0137931,11.9586207 13.2482759,11.4896552 C13.6,11.0206897 13.7172414,10.5517241 13.8344828,9.96551724 C13.9517241,9.49655172 13.9517241,8.91034483 13.9517241,8.32413793 C14.0689655,7.85517241 13.8344828,7.3862069 13.6,6.91724138 L13.6,6.91724138 Z" id="Shape"></path>
                    <path d="M9.6137931,0.820689655 L15.1241379,0.820689655 C15.5931034,0.820689655 16.062069,1.05517241 16.4137931,1.28965517 C16.7655172,1.52413793 17,1.87586207 17.1172414,2.22758621 C17.2344828,2.57931034 17.3517241,2.93103448 17.3517241,3.4 L17.3517241,5.74482759 C17.3517241,5.86206897 17.3517241,5.86206897 17.1172414,5.86206897 L13.6,5.86206897 L13.0137931,5.86206897 C12.7793103,5.86206897 12.662069,5.86206897 12.5448276,5.62758621 C12.1931034,5.27586207 11.8413793,5.04137931 11.4896552,4.92413793 C11.2551724,4.80689655 10.9034483,4.68965517 10.6689655,4.57241379 C10.2,4.45517241 9.73103448,4.45517241 9.26206897,4.45517241 C8.91034483,4.45517241 8.67586207,4.57241379 8.32413793,4.68965517 C8.08965517,4.80689655 7.73793103,4.92413793 7.50344828,5.04137931 C7.26896552,5.15862069 7.03448276,5.39310345 6.8,5.51034483 C6.68275862,5.62758621 6.56551724,5.74482759 6.44827586,5.86206897 L6.2137931,5.86206897 L3.75172414,5.86206897 L1.28965517,5.86206897 C1.17241379,5.86206897 1.17241379,5.86206897 1.17241379,5.74482759 L1.17241379,4.68965517 L1.17241379,3.4 C1.17241379,3.04827586 1.28965517,2.8137931 1.40689655,2.46206897 C1.64137931,1.87586207 2.11034483,1.52413793 2.69655172,1.17241379 C2.93103448,1.05517241 3.04827586,0.937931034 3.28275862,0.937931034 C3.63448276,0.820689655 3.9862069,0.820689655 4.33793103,0.820689655 C6.2137931,0.820689655 7.85517241,0.820689655 9.6137931,0.820689655 L9.6137931,0.820689655 L9.6137931,0.820689655 Z M15.3586207,3.28275862 L15.3586207,3.28275862 L15.3586207,2.22758621 C15.3586207,2.11034483 15.3586207,1.99310345 15.2413793,1.87586207 C15.1241379,1.75862069 15.0068966,1.75862069 14.8896552,1.75862069 L12.8965517,1.75862069 C12.662069,1.75862069 12.4275862,1.99310345 12.4275862,2.22758621 L12.4275862,2.46206897 L12.4275862,4.33793103 C12.4275862,4.57241379 12.5448276,4.68965517 12.662069,4.68965517 L12.8965517,4.68965517 L14.7724138,4.68965517 C15.1241379,4.68965517 15.3586207,4.57241379 15.3586207,4.10344828 C15.3586207,3.9862069 15.3586207,3.63448276 15.3586207,3.28275862 L15.3586207,3.28275862 Z" id="Shape"></path>
                    <path d="M5.97931034,8.91034483 C5.97931034,6.91724138 7.62068966,5.39310345 9.37931034,5.27586207 C11.6068966,5.15862069 13.1310345,6.91724138 13.1310345,8.67586207 C13.2482759,11.0206897 11.3724138,12.5448276 9.6137931,12.5448276 C7.62068966,12.662069 5.97931034,11.0206897 5.97931034,8.91034483 L5.97931034,8.91034483 Z" id="Shape"></path>
                </g>
            </g>
        </g>
    </g>
</svg>