<?xml version="1.0" encoding="UTF-8" standalone="no"?>
<svg width="39px" height="55px" viewBox="0 0 39 55" version="1.1" xmlns="http://www.w3.org/2000/svg" xmlns:xlink="http://www.w3.org/1999/xlink" xmlns:sketch="http://www.bohemiancoding.com/sketch/ns">
    <!-- Generator: Sketch 3.4.2 (15855) - http://www.bohemiancoding.com/sketch -->
    <title>logo</title>
    <desc>Created with Sketch.</desc>
    <defs></defs>
    <g id="Page-1" stroke="none" stroke-width="1" fill="none" fill-rule="evenodd" sketch:type="MSPage">
        <g id="-Icons" sketch:type="MSArtboardGroup" transform="translate(-288.000000, -514.000000)">
            <g id="logo" sketch:type="MSLayerGroup" transform="translate(288.000000, 514.000000)">
                <g id="Layer_1" sketch:type="MSShapeGroup">
                    <path d="M9.1,53.9679525 L8.02469136,50.2023739 L11.5555556,46.8534125 L12.117284,49.9940653 L9.22839506,53.9679525 L9.1,53.9679525 Z" id="Shape" stroke="#545454" stroke-width="0.9322" fill="#545454"></path>
                    <path d="M1.25185185,19.3727003 C1.28395062,12.1299703 5.52098765,5.41602374 12.1975309,2.515727 C18.9061728,-0.400593472 26.962963,1.13768546 32.4518519,5.84866469 C35.1320988,8.15608309 37.1222222,11.2166172 38.1333333,14.5976261 C39.2728395,18.3952522 38.9037037,22.3851632 37.4111111,26.0225519 C34.682716,32.6884273 28.1185185,37.1750742 20.9444444,37.5596439 C10.4802469,38.1204748 1.31604938,29.4676558 1.25185185,19.0041543 C1.25185185,18.5394659 1.25185185,19.2605341 1.25185185,19.3727003 C1.28395062,26.3910979 5.05555556,32.8486647 11.2987654,36.1655786 C17.7666667,39.6106825 25.8555556,38.7934718 31.617284,34.3388724 C36.945679,30.2367953 39.3691358,23.6189911 38.7592593,17.0332344 C38.0851852,9.80652819 32.7728395,3.76557864 26.0320988,1.37804154 C20.1740741,-0.689020772 13.4814815,0.192284866 8.49012346,3.90979228 C3.73950617,7.45103858 1.28395062,13.1554896 1.25185185,18.9881306 C1.25185185,19.1002967 1.25185185,19.821365 1.25185185,19.3727003 L1.25185185,19.3727003 Z" id="Shape" fill="#545454"></path>
                    <path d="M37.2345679,18.6356083 C37.2345679,28.8747774 28.9209877,37.1750742 18.6654321,37.1750742 C8.40987654,37.1750742 0.0962962963,28.8747774 0.0962962963,18.6356083 C0.0962962963,8.39643917 8.40987654,0.0961424332 18.6654321,0.0961424332 C28.937037,0.0961424332 37.2345679,8.39643917 37.2345679,18.6356083 L37.2345679,18.6356083 Z" id="Shape" fill="#545454"></path>
                    <path d="M17.3493827,18.6356083 C17.3493827,17.9145401 17.9432099,17.3216617 18.6654321,17.3216617 C19.3876543,17.3216617 19.9814815,17.9145401 19.9814815,18.6356083 C19.9814815,19.3566766 19.3876543,19.9495549 18.6654321,19.9495549 C17.9432099,19.9495549 17.3493827,19.3566766 17.3493827,18.6356083 L17.3493827,18.6356083 Z" id="Shape" fill="#545454"></path>
                    <path d="M13.8024691,9.37388724 C13.8024691,6.68189911 15.9851852,4.51869436 18.6654321,4.51869436 C21.3617284,4.51869436 23.5283951,6.69792285 23.5283951,9.37388724 C23.5283951,12.0658754 21.345679,14.2290801 18.6654321,14.2290801 C15.9851852,14.2290801 13.8024691,12.0498516 13.8024691,9.37388724 L13.8024691,9.37388724 Z" id="Shape" fill="#ADDDDD"></path>
                    <path d="M13.8024691,27.9454006 C13.8024691,25.2534125 15.9851852,23.0902077 18.6654321,23.0902077 C21.3617284,23.0902077 23.5283951,25.2694362 23.5283951,27.9454006 C23.5283951,30.6373887 21.345679,32.8005935 18.6654321,32.8005935 C15.9851852,32.8005935 13.8024691,30.6373887 13.8024691,27.9454006 L13.8024691,27.9454006 Z" id="Shape" fill="#ADDDDD"></path>
                    <path d="M23.1753086,18.5875371 C23.1753086,15.895549 25.3580247,13.7323442 28.0382716,13.7323442 C30.7345679,13.7323442 32.917284,15.9115727 32.917284,18.5875371 C32.917284,21.2795252 30.7345679,23.44273 28.0382716,23.44273 C25.3580247,23.44273 23.1753086,21.2795252 23.1753086,18.5875371 L23.1753086,18.5875371 Z" id="Shape" fill="#ADDDDD"></path>
                    <path d="M4.57407407,18.5875371 C4.57407407,15.895549 6.75679012,13.7323442 9.43703704,13.7323442 C12.117284,13.7323442 14.3,15.9115727 14.3,18.5875371 C14.3,21.2795252 12.117284,23.44273 9.43703704,23.44273 C6.75679012,23.44273 4.57407407,21.2795252 4.57407407,18.5875371 L4.57407407,18.5875371 Z" id="Shape" fill="#ADDDDD"></path>
                    <path d="M1.52469136,23.1382789 C7.15802469,39.0178042 8.52222222,36.7103858 11.1703704,46.6931751" id="Shape"></path>
                    <path d="M1.41234568,25.4617211 C4.17283951,33.2011869 8.87530864,39.0017804 10.9938272,46.9495549 C11.0259259,47.0617211 11.3469136,47.0617211 11.3148148,46.9495549 C9.1962963,39.0017804 3.88395062,30.9738872 1.12345679,23.2344214 C1.07530864,23.0902077 0.70617284,23.2824926 0.722222222,23.3465875 L1.41234568,25.4617211 L1.41234568,25.4617211 Z" id="Shape" fill="#545454"></path>
                    <path d="M11.5876543,53.1667656 L8.44197531,50.2023739 L11.6679012,46.8694362 L14.3160494,49.7697329 L11.5876543,53.1667656 Z" id="Shape" fill="#FFFFFF"></path>
                    <path d="M9.34074074,53.8397626 L8.00864198,50.2344214 L10.4962963,48.2635015 L12.037037,50.1062315 L9.34074074,53.8397626 Z" id="Shape" fill="#FFFFFF"></path>
                    <path d="M30.2851852,4.23026706 C48.3567901,24.2599407 26.1123457,41.1169139 11.7320988,46.5649852" id="Shape"></path>
                    <path d="M29.4987654,4.43857567 C35.854321,11.7293769 38.8395062,20.494362 34.4580247,29.579822 C30.5098765,37.7839763 19.5320988,43.135905 11.282716,46.3566766 C10.6888889,46.5810089 10.8654321,46.7893175 11.8123457,46.4047478 C19.4197531,43.4403561 29.2580247,38.9857567 34.0888889,32.335905 C40.9419753,22.9299703 38.2617284,12.2902077 31.0555556,4.00593472 C30.9753086,3.90979228 29.9320988,3.3810089 29.6592593,3.49317507 C29.2419753,3.65341246 29.5469136,4.50267062 29.4987654,4.43857567 L29.4987654,4.43857567 L29.4987654,4.43857567 Z" id="Shape" fill="#545454"></path>
                    <path d="M9.82222222,53.8397626 L8.07283951,50.2985163 L10.8493827,47.9750742 L12.4061728,49.9459941 L9.82222222,53.8397626 Z" id="Shape" fill="#E2E2E2"></path>
                    <path d="M10.3518519,53.7596439 L8.1691358,50.378635 L11.2506173,47.6065282 L13.2407407,49.5454006 L10.3518519,53.7596439 Z" id="Shape" fill="#C9C9C9"></path>
                    <path d="M10.9135802,53.631454 L8.21728395,50.3946588 L11.3308642,47.4462908 L13.5296296,49.7857567 L10.9135802,53.631454 Z" id="Shape" fill="#B5B5B6"></path>
                    <path d="M11.5074074,53.4391691 L8.07283951,50.3465875 L11.4432099,47.2379822 L14.2518519,49.1608309 L11.5074074,53.4391691 Z" id="Shape" fill="#A09F9F"></path>
                    <path d="M12.037037,52.958457 L8.05679012,50.1543027 L11.0419753,46.4688427 L14.6851852,48.904451 L12.037037,52.958457 Z" id="Shape" stroke="#ADDDDD" fill="#ADDDDD"></path>
                </g>
            </g>
        </g>
    </g>
</svg>