<?xml version="1.0" encoding="UTF-8" standalone="no"?>
<svg width="37px" height="37px" viewBox="0 0 37 37" version="1.1" xmlns="http://www.w3.org/2000/svg" xmlns:xlink="http://www.w3.org/1999/xlink" xmlns:sketch="http://www.bohemiancoding.com/sketch/ns">
    <!-- Generator: Sketch 3.4.2 (15855) - http://www.bohemiancoding.com/sketch -->
    <title>twitter</title>
    <desc>Created with Sketch.</desc>
    <defs></defs>
    <g id="Page-1" stroke="none" stroke-width="1" fill="none" fill-rule="evenodd" sketch:type="MSPage">
        <g id="-Icons" sketch:type="MSArtboardGroup" transform="translate(-686.000000, -611.000000)">
            <g id="twitter" sketch:type="MSLayerGroup" transform="translate(687.000000, 612.000000)">
                <circle id="Oval" stroke="#635C56" stroke-width="3" sketch:type="MSShapeGroup" cx="17.3517241" cy="17.3517241" r="16.2965517"></circle>
                <path d="M26.262069,12.5448276 C25.6758621,12.7793103 25.0896552,13.0137931 24.3862069,13.0137931 C25.0896552,12.662069 25.5586207,11.9586207 25.7931034,11.2551724 C25.2068966,11.6068966 24.5034483,11.8413793 23.6827586,12.0758621 C23.0965517,11.4896552 22.2758621,11.0206897 21.337931,11.0206897 C19.5793103,11.0206897 18.0551724,12.4275862 18.0551724,14.3034483 C18.0551724,14.537931 18.0551724,14.7724138 18.1724138,15.0068966 C15.4758621,14.8896552 13.1310345,13.6 11.4896552,11.6068966 C11.2551724,12.0758621 11.0206897,12.662069 11.0206897,13.2482759 C11.0206897,14.4206897 11.6068966,15.3586207 12.4275862,15.9448276 C11.8413793,15.9448276 11.3724138,15.8275862 10.9034483,15.5931034 L10.9034483,15.5931034 C10.9034483,17.1172414 12.0758621,18.5241379 13.4827586,18.7586207 C13.2482759,18.8758621 12.8965517,18.8758621 12.662069,18.8758621 C12.4275862,18.8758621 12.1931034,18.8758621 12.0758621,18.7586207 C12.5448276,20.0482759 13.7172414,20.9862069 15.1241379,20.9862069 C14.0689655,21.8068966 12.662069,22.3931034 11.137931,22.3931034 L10.3172414,22.3931034 C11.7241379,23.3310345 13.4827586,23.8 15.2413793,23.8 C21.2206897,23.8 24.5034483,18.8758621 24.5034483,14.537931 L24.5034483,14.0689655 C25.3241379,13.7172414 25.7931034,13.1310345 26.262069,12.5448276 L26.262069,12.5448276 Z" id="Shape" fill="#635C56" sketch:type="MSShapeGroup"></path>
            </g>
        </g>
    </g>
</svg>